<?xml version="1.0" encoding="UTF-8"?>
<svg id="Layer_1" data-name="Layer 1" xmlns="http://www.w3.org/2000/svg" viewBox="0 0 206.9 97.06">
  <defs>
    <style>
      .cls-1 {
        stroke: #3a3a3a;
        stroke-linejoin: bevel;
        stroke-width: 2px;
      }

      .cls-1, .cls-2 {
        fill: #3a3a3a;
      }

      .cls-3 {
        fill: #a341f9;
      }

      .cls-3, .cls-2 {
        stroke-width: 0px;
      }
    </style>
  </defs>
  <g>
    <path class="cls-2" d="M11.89,44.35V9.97H0V.81h34.09v9.17h-12.03v34.38h-10.17Z"/>
    <path class="cls-3" d="M47.57,40.3c-1.93,2.87-4.1,4.45-6.57,4.45-4.99,0-9.04-4.84-9.04-15.52s6.47-19.62,18.28-19.62c1.68,0,3.26.25,4.5.54l-1.09,4.1c-.2-.05-1.58-.34-3.51-.34-9.64,0-14.03,7.66-14.03,15.32,0,6.42,1.48,11.32,4.94,11.32,2.22,0,7.41-6.57,8.15-24.41l4.25.1c-.35,7.96-2.32,13.84-2.32,18.93,0,3.51.64,5.83,2.08,5.83,2.22,0,5.24-4.94,6.33-7.46l3.85,1.68c-.44,1.04-4.45,10.03-10.23,10.03-3.06,0-4.84-2.37-5.58-4.94Z"/>
    <path class="cls-2" d="M61.39,34.25h8.81c.36,3.08,2.15,4.58,5.37,4.58,2.79,0,4.58-1.07,4.58-3.08,0-1.65-1.43-2.44-2.72-2.86-2.36-.79-6.16-1.15-7.81-1.58-3.65-1-7.45-3.08-7.45-9.1,0-6.59,5.73-9.96,12.68-9.96,8.45,0,12.82,3.94,13.25,9.96h-8.59c-.29-2.44-1.86-3.65-4.73-3.65-2.36,0-4.08.93-4.08,2.86,0,1.43,1,2.08,3.58,2.58,7.66,1.43,11.89,1.79,14.04,6.95.43,1.15.72,2.51.72,4.01,0,6.95-5.73,10.39-13.39,10.39-8.31,0-13.97-4.01-14.25-11.1Z"/>
    <path class="cls-2" d="M111.09,44.35l-7.02-12.75-2.79,3.22v9.53h-9.24V.81h9.24v22.92l8.67-10.53h10.82l-10.31,11.67,11.53,19.48h-10.89Z"/>
  </g>
  <g>
    <path class="cls-2" d="M1.79,96.13v-43.55h18.48c9.38,0,15.26,5.73,15.26,14.76,0,8.31-5.3,14.25-13.82,14.25h-9.6v14.54H1.79ZM25.35,67.26c0-3.44-2.08-5.59-5.73-5.59h-7.52v11.39h7.52c3.72,0,5.73-2.44,5.73-5.8Z"/>
    <path class="cls-2" d="M38.6,96.13v-43.55h9.45v43.55h-9.45Z"/>
    <path class="cls-2" d="M51.2,87.39c0-6.16,4.08-8.81,11.24-9.74,5.66-.72,7.45-1.43,7.45-3.51,0-2.22-1.36-3.37-4.01-3.37-2.87,0-4.44,1.36-4.8,4.01h-8.59c.22-5.87,4.51-10.67,13.32-10.67s13.25,4.15,13.25,11.46v15.69c0,2.51.36,3.94,1,4.44v.43h-9.02c-.43-.57-.72-1.72-1-3.44h-.07c-1.93,2.79-4.8,4.23-8.74,4.23-5.8,0-10.03-3.22-10.03-9.52ZM70.11,84.95v-3.65c-1.72.93-7.16,1.93-8.74,3.22-.79.57-1.15,1.43-1.15,2.58,0,2.29,1.29,3.51,4.01,3.51,3.51,0,5.87-2.36,5.87-5.66Z"/>
    <path class="cls-2" d="M102.62,96.13v-18.26c0-3.37-1.5-5.52-4.58-5.52s-5.16,2.72-5.16,6.52v17.26h-9.31v-31.16h9.02v4.23h.14c2.22-3.44,5.3-5.16,9.02-5.16,6.66,0,10.24,5.08,10.24,11.82v20.27h-9.38Z"/>
    <path class="cls-2" d="M135.28,96.13v-18.26c0-3.37-1.5-5.52-4.58-5.52s-5.16,2.72-5.16,6.52v17.26h-9.31v-31.16h9.02v4.23h.14c2.22-3.44,5.3-5.16,9.02-5.16,6.66,0,10.24,5.08,10.24,11.82v20.27h-9.38Z"/>
    <path class="cls-2" d="M151.89,92.4c-2.87-3.15-4.3-7.09-4.3-11.89s1.43-8.67,4.23-11.82c2.79-3.08,6.44-4.66,10.82-4.66,4.01,0,7.38,1.29,10.03,3.87,3.44,3.37,5.16,8.31,5.16,14.76v.43h-21.06c.29,2.15,1,3.87,2.15,5.01,1.07,1.22,2.58,1.79,4.44,1.79,2.43,0,4.01-1,4.87-3.08h9.1c-.65,3.01-2.29,5.44-4.94,7.38-2.51,1.86-5.59,2.86-9.17,2.86-4.73,0-8.52-1.58-11.32-4.66ZM162.85,71.13c-3.37,0-5.37,2.01-6.02,6.09h11.53c-.29-3.72-2.44-6.09-5.52-6.09Z"/>
    <path class="cls-3" d="M179.27,87.04c0-2.87.31-6.43,1.04-10.5,2.09-12.28,6.48-18.65,12.85-18.65,2.4,0,5.54,1.1,9.14,4.65,2.93,2.93,4.6,6.95,4.6,10.55,0,4.49-2.77,7.84-7.52,7.84-1.41,0-3.13-.31-5.17-1.1-.05-.05-.1-.05-.16-.05,0,0-.21.1-.16.1.47,7.78,4.23,11.33,11.18,11.33l.1,4.55c-9.19,0-15.72-5.43-15.72-15.88,0-2.51,2.09-4.65,4.7-4.65,1.57,0,3.19,1.2,5.28,1.2,1.78,0,2.98-.94,2.98-3.34,0-2.19-1.04-5.17-3.29-7.42-1.36-1.31-3.76-3.29-6.11-3.29-1.2,0-4.28.47-6.84,8.67.89,3.08,2.77,10.76,2.77,16.66,0,6.74-2.98,8.93-5.07,8.93-3.03,0-4.6-3.55-4.6-9.61ZM183.71,87.2c0,1.78.16,2.93.31,3.71.37-.16.47-2.09.47-3.19,0-1.57-.21-3.45-.47-5.33-.21,1.93-.31,3.55-.31,4.81Z"/>
  </g>
  <path class="cls-1" d="M172.94,44.39h-40.19c-.31,0-.56-.25-.56-.56V4.14c0-.31.25-.56.56-.56h40.19c.31,0,.56.25.56.56v39.68c0,.31-.25.56-.56.56ZM133.31,43.26h39.06V4.7h-39.06v38.56Z"/>
  <path class="cls-3" d="M151.8,31.11c-.56,0-1.12-.2-1.56-.62l-6.04-5.65c-.92-.86-.97-2.3-.11-3.22.86-.92,2.3-.97,3.23-.11l4.43,4.15L176.91.66c.89-.89,2.34-.88,3.23.01.89.89.88,2.34,0,3.23l-26.71,26.54c-.45.44-1.03.66-1.61.66Z"/>
</svg>